<svg xmlns="http://www.w3.org/2000/svg" width="512" height="512" viewBox="0 0 512 512" version="1.1">
	<path d="M 227 15.416 C 184.839 21.906, 146.318 38.008, 112.191 63.407 C 81.095 86.549, 59.396 112.832, 41.937 148.500 C 14.808 203.924, 9.057 265.746, 25.611 324 C 43.472 386.856, 87.058 439.571, 147.009 470.824 C 179.681 487.856, 211.237 495.830, 249.570 496.739 C 273.682 497.310, 289.184 495.808, 308.781 491 C 354.397 479.808, 391.964 458.737, 425.343 425.624 C 444.158 406.958, 456.827 389.305, 468.489 365.500 C 480.471 341.044, 487.212 319.815, 491.669 292.500 C 494.166 277.192, 494.175 241.189, 491.686 225 C 484.880 180.750, 468.799 142.175, 442.719 107.544 C 429.624 90.156, 400.506 63.794, 380 50.762 C 354.687 34.675, 325.210 22.941, 296 17.324 C 284.321 15.078, 279.330 14.686, 259 14.418 C 243.151 14.209, 232.732 14.533, 227 15.416 M 227 33.595 C 164.515 42.676, 99.031 83.928, 65.538 135.311 C 42.736 170.292, 28.110 224.748, 30.436 266 C 31.190 279.365, 33.620 295.194, 35.580 299.500 C 36.785 302.149, 36.860 301.153, 36.222 291 C 35.079 272.798, 35.644 246.614, 37.462 233.550 C 40.867 209.076, 48.630 183.560, 59.078 162.500 C 68.859 142.784, 76.626 132.324, 95.476 113.483 C 126.842 82.131, 160.010 60.716, 194.706 49.415 C 214.029 43.121, 226.491 40.902, 246.064 40.269 C 276.361 39.290, 300.636 43.965, 330.732 56.574 C 358.335 68.139, 390.822 90.505, 411.615 112.257 C 442.741 144.821, 463.230 183.676, 470.644 224.201 C 472.419 233.901, 473.442 234.112, 474.500 224.996 C 476.495 207.814, 462.475 165.388, 446.096 139.039 C 429.916 113.010, 409.502 92.799, 379.442 73.045 C 347.616 52.131, 312.868 38.347, 279.872 33.546 C 266.810 31.646, 240.246 31.671, 227 33.595 M 241.500 65.053 C 195.834 68.206, 153.230 88.390, 116.132 124.450 C 109.880 130.528, 102.181 138.650, 99.024 142.500 C 71.100 176.550, 55.901 225.255, 59.104 270.424 C 60.203 285.923, 63.471 301.166, 70.134 321.875 C 75.871 339.705, 77.979 348.099, 77.949 353 L 77.928 356.500 75.713 353.796 C 74.494 352.308, 71.024 346.550, 68 341 C 64.976 335.450, 61.462 329.692, 60.191 328.204 L 57.880 325.500 58.515 329.500 C 58.864 331.700, 60.994 338.154, 63.249 343.843 C 85.195 399.203, 140.893 445.272, 207.298 462.987 C 223.353 467.271, 236.423 468.987, 253.026 468.994 C 277.105 469.004, 294.031 466.144, 318.500 457.933 C 354.899 445.718, 388.839 424.084, 419.572 393.510 C 430.326 382.811, 442.746 367.413, 441.570 366.237 C 440.985 365.652, 436.002 369.261, 418.318 383.077 C 401.071 396.552, 373.697 415.959, 361.796 423.148 C 343.347 434.293, 320.617 443.279, 301.735 446.892 C 288.145 449.492, 268.021 451.421, 266.836 450.236 C 265.193 448.593, 268.183 447.362, 282 443.993 C 318.070 435.199, 344.522 423.404, 368.661 405.351 C 390.534 388.992, 408.421 371.009, 419.056 354.684 C 422.215 349.835, 425.062 346.292, 425.383 346.810 C 426.406 348.466, 422.971 358.284, 419.009 365.028 C 416.900 368.618, 411.268 375.706, 406.493 380.778 C 401.719 385.850, 398.095 390, 398.441 390 C 400.080 390, 415.910 375.843, 420.520 370.255 C 432.511 355.717, 446.770 318.280, 451.468 289 C 453.233 278.001, 453.463 257.199, 451.955 244.974 C 449.266 223.175, 440.829 194.679, 431.029 174.301 C 420.865 153.165, 412.083 141.106, 394.379 123.971 C 358.011 88.774, 314.532 68.306, 269.059 64.978 C 262.152 64.472, 255.600 64.111, 254.500 64.176 C 253.400 64.241, 247.550 64.636, 241.500 65.053 M 230 79.493 C 191.793 86.055, 157.396 104.828, 128.991 134.623 C 116.471 147.755, 110.116 156.703, 102.452 171.988 C 90.008 196.807, 84.018 221.724, 84.006 248.716 C 83.986 294.187, 99.437 333.441, 129.849 365.178 C 147.154 383.237, 160.407 392.967, 181.500 403.095 C 196.955 410.517, 208.249 414.407, 223.898 417.700 C 241.246 421.351, 267.430 421.555, 285.350 418.180 C 341.025 407.692, 388.553 372.207, 410.476 324.758 C 428.391 285.983, 430.639 242.706, 416.955 200 C 412.810 187.061, 400.464 162.540, 392.285 151 C 383.710 138.901, 364.191 119.389, 352.267 110.998 C 328.683 94.400, 304.350 84.106, 278.074 79.612 C 266.700 77.667, 241.005 77.603, 230 79.493 M 240 90.948 C 217.299 93.354, 195.117 100.954, 174.445 113.406 C 167.821 117.397, 149 131.995, 149 133.143 C 149 134.317, 221.926 206.466, 223.458 206.808 C 224.217 206.977, 227.175 205.931, 230.031 204.484 C 232.887 203.037, 238.436 201.056, 242.362 200.082 L 249.500 198.311 252.756 191.905 C 254.547 188.382, 262.905 171.325, 271.330 154 C 279.754 136.675, 289.217 117.792, 292.358 112.039 C 299.877 98.263, 300.046 97.490, 295.832 96.151 C 282.654 91.964, 254.855 89.373, 240 90.948 M 308.143 104.250 C 307.587 106.037, 306.612 110.200, 305.976 113.500 C 304.649 120.394, 303.323 125.271, 290.346 170.977 L 280.842 204.453 283.171 206.267 C 284.452 207.264, 287.666 209.912, 290.313 212.150 L 295.126 216.219 301.813 215.530 C 315.218 214.147, 401.364 201.896, 402.620 201.193 C 403.611 200.638, 402.979 198.151, 399.909 190.523 C 387.789 160.406, 367.340 135.565, 339.099 116.656 C 330.824 111.114, 312.129 101, 310.163 101 C 309.609 101, 308.700 102.463, 308.143 104.250 M 248.073 108.635 C 245.590 111.791, 245.513 112.860, 247.557 115.777 C 248.629 117.308, 250.137 118, 252.402 118 C 258.342 118, 261.069 112.069, 257 108 C 254.209 105.209, 250.563 105.468, 248.073 108.635 M 293.079 118.721 C 293.036 119.393, 286.974 132.443, 279.610 147.721 C 266.857 174.177, 258.269 194.602, 259.415 195.748 C 259.706 196.039, 260.359 195.202, 260.866 193.889 C 261.373 192.575, 265.934 182.950, 271.001 172.500 C 285.011 143.610, 294.551 120.883, 293.618 118.618 C 293.308 117.864, 293.132 117.897, 293.079 118.721 M 133.564 148.030 C 93.854 194.224, 85.104 261.970, 111.612 317.993 C 114.082 323.214, 117.517 329.739, 119.245 332.493 C 123.838 339.812, 134.141 352.856, 139.210 357.769 L 143.615 362.039 145.643 359.769 C 146.759 358.521, 151.646 351.650, 156.504 344.500 C 161.361 337.350, 170.127 324.975, 175.983 317 C 181.838 309.025, 191.061 296.271, 196.478 288.657 L 206.327 274.815 204.040 265.942 C 201.223 255.017, 201.518 242.755, 204.816 233.622 L 206.939 227.743 190.146 206.622 C 171.052 182.606, 159.548 167.262, 149.004 151.750 C 144.986 145.838, 141.203 141.028, 140.599 141.063 C 139.994 141.097, 136.829 144.232, 133.564 148.030 M 166 157.679 C 166 158.806, 185.644 181.605, 190.251 185.825 C 191.930 187.363, 193.021 187.775, 193.474 187.042 C 193.862 186.415, 190.254 181.717, 185.161 176.217 C 173.164 163.262, 166 156.331, 166 157.679 M 362.500 211.450 C 349.211 213.801, 339.643 216.024, 334.750 217.897 C 331.427 219.170, 331.018 221.450, 334.250 220.684 C 335.488 220.391, 347.027 218.054, 359.893 215.490 C 372.758 212.927, 384.233 210.447, 385.393 209.978 C 389.687 208.243, 375.459 209.158, 362.500 211.450 M 400 214.106 C 391.929 217.804, 355.972 232.081, 334.749 240.014 C 323.336 244.280, 312.933 248.469, 311.631 249.322 C 309.559 250.680, 309.205 251.847, 308.792 258.686 C 308.532 262.984, 307.289 269.671, 306.029 273.547 L 303.737 280.594 308.252 288.547 C 324.620 317.384, 330.830 328.271, 338.739 342 C 343.651 350.525, 348.912 360.650, 350.431 364.500 C 355.051 376.209, 354.359 376.306, 368.341 362 C 392.145 337.644, 405.700 311.558, 411.163 279.590 C 412.928 269.262, 413.147 264.877, 412.668 249.500 C 412.278 236.986, 411.485 228.605, 410.064 222 C 408.940 216.775, 408.016 212.387, 408.010 212.250 C 407.975 211.390, 403.834 212.349, 400 214.106 M 246.500 218.399 C 236.521 221.555, 229.343 227.489, 224.679 236.440 C 221.822 241.923, 221.520 243.357, 221.511 251.500 C 221.502 259.162, 221.894 261.341, 224.151 266.155 C 227.424 273.137, 233.401 279.067, 240.839 282.715 C 245.817 285.157, 247.646 285.492, 256 285.496 C 264.149 285.499, 266.289 285.130, 271.046 282.899 C 278.262 279.514, 282.986 275.285, 286.216 269.319 C 298.840 245.996, 282.350 216.791, 256.712 217.067 C 253.296 217.104, 248.700 217.703, 246.500 218.399 M 248 221.877 C 239.271 224.744, 230.939 231.558, 227.361 238.756 C 225.940 241.616, 225.500 244.744, 225.500 252 C 225.500 260.502, 225.780 261.973, 228.168 266 C 234.096 275.999, 243.302 281.853, 254.511 282.753 C 270.392 284.028, 283.600 274.531, 287.586 258.972 C 291.198 244.873, 284.544 230.964, 270.795 223.871 C 266.151 221.475, 252.785 220.306, 248 221.877 M 249.385 229.557 C 244.013 231.541, 237.428 237.241, 234.992 242.016 C 232.061 247.761, 231.562 252.983, 233.355 259.151 C 239.207 279.278, 266.268 283.500, 278.439 266.183 C 280.906 262.673, 281.508 260.693, 281.827 255.048 C 282.041 251.272, 281.704 246.632, 281.078 244.737 C 279.510 239.984, 273.597 233.345, 268.715 230.855 C 263.445 228.166, 254.734 227.581, 249.385 229.557 M 252.791 237.988 C 237.889 242.481, 237 263.015, 251.468 268.541 C 259.919 271.768, 269.197 268.355, 272.929 260.647 C 276.334 253.612, 275.375 248.090, 269.733 242.240 C 265.299 237.644, 259.098 236.087, 252.791 237.988 M 474.581 248.250 C 474.329 249.488, 473.647 257.072, 473.065 265.104 C 471.635 284.846, 468.913 300.118, 461.864 327.940 C 458.599 340.831, 456.096 352.081, 456.304 352.940 C 457.198 356.637, 467.714 328.360, 472.087 310.500 C 476.167 293.835, 478 278.475, 478 260.949 C 478 248.413, 477.761 246, 476.519 246 C 475.705 246, 474.832 247.012, 474.581 248.250 M 109 278 C 107.900 279.100, 107 280.900, 107 282 C 107 284.518, 110.404 288, 112.865 288 C 115.414 288, 120 284.240, 120 282.150 C 120 276.664, 112.983 274.017, 109 278 M 389.333 278.615 C 387.798 280.957, 387.773 281.506, 389.091 283.865 C 391.771 288.664, 401 287.271, 401 282.068 C 401 276.140, 392.586 273.650, 389.333 278.615 M 201.871 289.135 C 198.367 294.160, 190.874 304.622, 185.219 312.385 C 174.493 327.112, 162.889 343.511, 161.519 345.880 C 161.061 346.673, 161.130 347.098, 161.682 346.880 C 162.791 346.441, 170.192 338.083, 196.350 307.726 L 215.112 285.952 212.806 283.031 C 211.538 281.425, 209.992 280.086, 209.371 280.055 C 208.750 280.025, 205.375 284.111, 201.871 289.135 M 306.874 307.250 C 334.939 351.477, 338.822 357.228, 340.096 356.441 C 342.032 355.244, 327.449 331.140, 315.024 315 C 312.272 311.425, 307.925 305.462, 305.363 301.750 C 297.569 290.452, 298.603 294.216, 306.874 307.250 M 225 309.652 C 220.325 313.318, 209.300 322.190, 200.500 329.369 C 191.700 336.547, 178.687 347.163, 171.582 352.960 C 153.626 367.611, 151.581 369.512, 152.382 370.809 C 153.957 373.358, 175.201 386.582, 186.448 392.016 C 210.528 403.648, 230.329 408.369, 255 408.361 C 279.352 408.353, 296.481 404.806, 319.802 394.945 C 330.433 390.450, 344.271 382.989, 345.416 381.135 C 345.700 380.676, 342.685 376.929, 338.716 372.809 C 334.747 368.688, 318.479 351.536, 302.563 334.694 C 286.648 317.851, 273.020 303.838, 272.279 303.553 C 271.537 303.269, 268.593 303.537, 265.736 304.150 C 260.981 305.170, 246.939 304.837, 237 303.469 C 233.880 303.039, 232.576 303.711, 225 309.652 M 92 348.032 C 92 349.149, 92.939 352.861, 94.086 356.282 C 101.029 376.972, 119.625 400.368, 142.744 417.497 C 164.446 433.576, 205.488 449.515, 215.870 445.896 C 220.063 444.434, 219.634 441.871, 214.993 440.658 C 179.932 431.490, 147.383 412.558, 122.326 386.757 C 112.721 376.867, 102.090 362.326, 96.002 350.750 C 93.326 345.663, 92 344.762, 92 348.032 M 249.536 393.960 C 246.393 397.433, 249.639 404, 254.499 404 C 256.927 404, 261 399.844, 261 397.365 C 261 395.029, 257.135 392, 254.155 392 C 252.590 392, 250.512 392.882, 249.536 393.960 M 251 434.288 C 245.846 436.882, 248.127 447, 253.865 447 C 257.071 447, 261 443.146, 261 440 C 261 438.107, 260.112 436.447, 258.365 435.073 C 255.312 432.671, 254.405 432.574, 251 434.288" stroke="none" fill="black" fill-rule="evenodd"/>
</svg>